<svg id="Layer_1" data-name="Layer 1" xmlns="http://www.w3.org/2000/svg" width="320" height="200" viewBox="0 0 320 200"><defs><style>.cls-1{fill:#575756;}.cls-2{fill:#90b830;}.cls-3{fill:none;stroke:#fff;stroke-miterlimit:40;stroke-width:4.41px;}.cls-4{fill:#fbce07;}.cls-5{fill:#dd1d21;fill-rule:evenodd;}</style></defs><path class="cls-1" d="M82.4,184.8h-5l-1.3,2.84H74.2L80,175.22l5.57,12.42H83.63Zm-.72-1.66-1.73-4-1.81,4Z"/><polygon class="cls-1" points="91.39 187.64 93.84 175.08 97.86 184.15 102 175.08 104.22 187.64 102.41 187.64 101.28 180.59 97.82 188.17 94.47 180.58 93.21 187.64 91.39 187.64"/><path class="cls-1" d="M113.07,184.35h-5.28a2.26,2.26,0,0,0,.59,1.45,1.82,1.82,0,0,0,1.34.53,1.72,1.72,0,0,0,1-.31,3.92,3.92,0,0,0,.93-1.12l1.44.81a6.38,6.38,0,0,1-.7,1,3.74,3.74,0,0,1-.8.66,3.34,3.34,0,0,1-.91.39,4.55,4.55,0,0,1-1.07.12,3.5,3.5,0,0,1-2.65-1.06,4,4,0,0,1-1-2.83,4.06,4.06,0,0,1,1-2.83,3.35,3.35,0,0,1,2.59-1.06,3.31,3.31,0,0,1,2.57,1,4.11,4.11,0,0,1,.94,2.85ZM111.33,183A1.77,1.77,0,0,0,109,181.7a1.57,1.57,0,0,0-.49.27,1.44,1.44,0,0,0-.38.43,1.67,1.67,0,0,0-.24.56Z"/><path class="cls-1" d="M114.93,180.27h1.7V181a3.73,3.73,0,0,1,.84-.7,2.14,2.14,0,0,1,.93-.18,2.27,2.27,0,0,1,2,1.08,2.55,2.55,0,0,1,2.17-1.08c1.66,0,2.48,1,2.48,3v4.56h-1.71v-4.1a3.24,3.24,0,0,0-.25-1.5,1,1,0,0,0-.87-.44,1.13,1.13,0,0,0-1,.53,3.45,3.45,0,0,0-.32,1.7v3.81h-1.71v-4.07c0-1.32-.37-2-1.13-2a1.15,1.15,0,0,0-1.05.53,3.37,3.37,0,0,0-.33,1.7v3.81h-1.7Z"/><path class="cls-1" d="M128.88,174.86v6.26a3.21,3.21,0,0,1,4.8.06,4,4,0,0,1,1,2.75,4,4,0,0,1-1,2.81,3.26,3.26,0,0,1-4.79.12v.78h-1.7V174.86Zm4.05,9.14a2.55,2.55,0,0,0-.57-1.72,1.88,1.88,0,0,0-1.47-.68,1.94,1.94,0,0,0-1.52.66,2.43,2.43,0,0,0-.58,1.69,2.5,2.5,0,0,0,.57,1.72,1.94,1.94,0,0,0,1.51.66,1.91,1.91,0,0,0,1.47-.66,2.45,2.45,0,0,0,.59-1.67"/><path class="cls-1" d="M143.17,184.35h-5.28a2.27,2.27,0,0,0,.6,1.45,1.95,1.95,0,0,0,2.39.22,4.27,4.27,0,0,0,.93-1.12l1.43.81a5.76,5.76,0,0,1-.7,1,3.51,3.51,0,0,1-.8.66,3.21,3.21,0,0,1-.91.39,4.49,4.49,0,0,1-1.07.12,3.46,3.46,0,0,1-2.64-1.06,4,4,0,0,1-1-2.83,4.07,4.07,0,0,1,1-2.83,3.71,3.71,0,0,1,5.16,0,4.11,4.11,0,0,1,.93,2.85ZM141.43,183a1.63,1.63,0,0,0-1.72-1.36,1.57,1.57,0,0,0-.58.1,1.62,1.62,0,0,0-.5.27,1.59,1.59,0,0,0-.38.43,1.9,1.9,0,0,0-.24.56Z"/><path class="cls-1" d="M145,180.27h1.71v.66a3.22,3.22,0,0,1,.83-.68,2,2,0,0,1,.88-.18,2.76,2.76,0,0,1,1.4.43l-.78,1.56a1.61,1.61,0,0,0-.94-.35c-.93,0-1.39.7-1.39,2.1v3.83H145Z"/><path class="cls-1" d="M155.26,183.9a3.67,3.67,0,0,1,1.14-2.72,4.06,4.06,0,0,1,5.59,0,3.78,3.78,0,0,1,1.13,2.77,3.72,3.72,0,0,1-1.14,2.77,3.93,3.93,0,0,1-2.82,1.12,3.74,3.74,0,0,1-2.78-1.14,3.8,3.8,0,0,1-1.12-2.81m1.74,0a2.46,2.46,0,0,0,.59,1.74,2.27,2.27,0,0,0,3.19,0,2.75,2.75,0,0,0,0-3.43,2.26,2.26,0,0,0-3.17,0,2.37,2.37,0,0,0-.61,1.68"/><path class="cls-1" d="M166.68,181.86v5.78H165v-5.78h-.6v-1.59h.6v-2.85a3.09,3.09,0,0,1,.48-2,2.39,2.39,0,0,1,1.94-.81,3.53,3.53,0,0,1,1.14.27v1.74l-.17-.09a2.24,2.24,0,0,0-.91-.28.61.61,0,0,0-.61.33,3,3,0,0,0-.16,1.22v2.43h1.85v1.59Z"/><polygon class="cls-1" points="176.05 181.85 176.05 187.64 174.35 187.64 174.35 181.85 173.62 181.85 173.62 180.27 174.35 180.27 174.35 177.57 176.05 177.57 176.05 180.27 177.37 180.27 177.37 181.85 176.05 181.85"/><path class="cls-1" d="M178.84,174.86h1.71v6a2.88,2.88,0,0,1,2-.81,2.61,2.61,0,0,1,2,.8,3.32,3.32,0,0,1,.63,2.25v4.52h-1.7v-4.36a2.05,2.05,0,0,0-.32-1.28,1.19,1.19,0,0,0-1-.4,1.4,1.4,0,0,0-1.25.55,3.8,3.8,0,0,0-.35,1.92v3.57h-1.71Z"/><path class="cls-1" d="M194,184.35h-5.28a2.26,2.26,0,0,0,.59,1.45,1.82,1.82,0,0,0,1.34.53,1.78,1.78,0,0,0,1.06-.31,4.09,4.09,0,0,0,.92-1.12l1.44.81a5.76,5.76,0,0,1-.7,1,3.74,3.74,0,0,1-.8.66,3.34,3.34,0,0,1-.91.39,4.55,4.55,0,0,1-1.07.12,3.46,3.46,0,0,1-2.64-1.06,4,4,0,0,1-1-2.83,4.11,4.11,0,0,1,1-2.83,3.35,3.35,0,0,1,2.59-1.06,3.31,3.31,0,0,1,2.57,1,4.07,4.07,0,0,1,.94,2.85ZM192.3,183a1.63,1.63,0,0,0-1.72-1.36,1.7,1.7,0,0,0-.59.1,1.57,1.57,0,0,0-.49.27,1.59,1.59,0,0,0-.38.43,1.67,1.67,0,0,0-.24.56Z"/><path class="cls-1" d="M207.61,177.7l-1.43.84a2.4,2.4,0,0,0-.77-.9,1.76,1.76,0,0,0-1-.25,1.79,1.79,0,0,0-1.22.42,1.28,1.28,0,0,0-.48,1c0,.57.42,1,1.27,1.38l1.17.47a5.08,5.08,0,0,1,2.07,1.4,3.17,3.17,0,0,1,.66,2,3.59,3.59,0,0,1-1.07,2.67,3.74,3.74,0,0,1-2.69,1.06,3.59,3.59,0,0,1-2.51-.9,4.21,4.21,0,0,1-1.22-2.54l1.79-.39a3,3,0,0,0,.42,1.42,2,2,0,0,0,3,.2,1.86,1.86,0,0,0,.54-1.4,2.06,2.06,0,0,0-.09-.62,1.57,1.57,0,0,0-.29-.52,2.28,2.28,0,0,0-.52-.44,4.47,4.47,0,0,0-.76-.4l-1.13-.47c-1.59-.68-2.39-1.67-2.39-3a2.82,2.82,0,0,1,1-2.2,3.69,3.69,0,0,1,2.51-.89,3.51,3.51,0,0,1,3.15,2"/><path class="cls-1" d="M209.71,174.86h1.71v6a2.88,2.88,0,0,1,2-.81,2.59,2.59,0,0,1,2,.8,3.32,3.32,0,0,1,.63,2.25v4.52h-1.7v-4.36A2.05,2.05,0,0,0,214,182a1.17,1.17,0,0,0-1-.4,1.41,1.41,0,0,0-1.26.55,3.8,3.8,0,0,0-.35,1.92v3.57h-1.71Z"/><path class="cls-1" d="M224.91,184.35h-5.28a2.27,2.27,0,0,0,.6,1.45,1.95,1.95,0,0,0,2.39.22,4.09,4.09,0,0,0,.92-1.12l1.44.81a5.76,5.76,0,0,1-.7,1,3.7,3.7,0,0,1-.79.66,3.54,3.54,0,0,1-.92.39,4.55,4.55,0,0,1-1.07.12,3.46,3.46,0,0,1-2.64-1.06,4,4,0,0,1-1-2.83,4.11,4.11,0,0,1,1-2.83,3.35,3.35,0,0,1,2.59-1.06,3.31,3.31,0,0,1,2.57,1,4.07,4.07,0,0,1,.94,2.85ZM223.17,183a1.63,1.63,0,0,0-1.72-1.36,1.61,1.61,0,0,0-.58.1,1.51,1.51,0,0,0-.5.27,1.59,1.59,0,0,0-.38.43,1.9,1.9,0,0,0-.24.56Z"/><rect class="cls-1" x="226.77" y="174.86" width="1.7" height="12.77"/><rect class="cls-1" x="230.63" y="174.86" width="1.7" height="12.77"/><path class="cls-1" d="M245.6,181.55h4.82v.39a7.87,7.87,0,0,1-.31,2.33,5,5,0,0,1-1,1.75,5.32,5.32,0,0,1-4.15,1.83,5.67,5.67,0,0,1-4.19-1.77,6.08,6.08,0,0,1,4.35-10.35,6,6,0,0,1,2.56.56,7.36,7.36,0,0,1,2.23,1.82l-1.25,1.2a4.27,4.27,0,0,0-3.5-1.92,4.18,4.18,0,0,0-3.11,1.28,4.27,4.27,0,0,0-1.26,3.15A4.38,4.38,0,0,0,245,186.2a3.58,3.58,0,0,0,2.34-.87,3.12,3.12,0,0,0,1.15-2.12H245.6Z"/><path class="cls-1" d="M252.32,180.27H254v.66a3.22,3.22,0,0,1,.83-.68,2,2,0,0,1,.88-.18,2.73,2.73,0,0,1,1.4.43l-.77,1.56a1.67,1.67,0,0,0-1-.35c-.93,0-1.39.7-1.39,2.1v3.83h-1.7Z"/><path class="cls-1" d="M257.63,183.9a3.67,3.67,0,0,1,1.14-2.72,4,4,0,0,1,5.58,0,3.75,3.75,0,0,1,1.14,2.77,3.69,3.69,0,0,1-1.15,2.77,3.91,3.91,0,0,1-2.82,1.12,3.72,3.72,0,0,1-2.77-1.14,3.8,3.8,0,0,1-1.12-2.81m1.74,0a2.42,2.42,0,0,0,.59,1.74,2,2,0,0,0,1.59.66,2.08,2.08,0,0,0,1.6-.65,2.75,2.75,0,0,0,0-3.43,2.07,2.07,0,0,0-1.6-.65,2,2,0,0,0-1.58.65,2.37,2.37,0,0,0-.6,1.68"/><path class="cls-1" d="M269,180.27v4.23c0,1.22.48,1.83,1.45,1.83s1.45-.61,1.45-1.83v-4.23h1.69v4.26a5,5,0,0,1-.21,1.53,2.54,2.54,0,0,1-.74,1,3.57,3.57,0,0,1-4.38,0,2.66,2.66,0,0,1-.75-1,4.23,4.23,0,0,1-.21-1.53v-4.26Z"/><path class="cls-1" d="M277.43,191.64h-1.71V180.27h1.71v.8a3.12,3.12,0,0,1,2.28-1,3.19,3.19,0,0,1,2.5,1.11,4,4,0,0,1,1,2.81,4,4,0,0,1-1,2.76,3.22,3.22,0,0,1-4.79.06Zm4-7.65a2.57,2.57,0,0,0-.57-1.72,1.86,1.86,0,0,0-1.47-.67,1.93,1.93,0,0,0-1.52.65,2.45,2.45,0,0,0-.58,1.71,2.51,2.51,0,0,0,.58,1.71,1.94,1.94,0,0,0,1.51.66,1.86,1.86,0,0,0,1.46-.67,2.39,2.39,0,0,0,.59-1.67"/><path class="cls-2" d="M261.3,129.32h-5.07V114a.89.89,0,0,0-1.08-.9l-4.11.71a1.36,1.36,0,0,0-1.07,1.29v45a1.09,1.09,0,0,0,1.09,1.09h4.08a1.1,1.1,0,0,0,1.09-1.09V135.58h5.07a1.1,1.1,0,0,0,1.1-1.09v-4.08a1.1,1.1,0,0,0-1.1-1.09"/><path class="cls-2" d="M200.25,113.84a1.36,1.36,0,0,0-1.07,1.29v45.28a1.09,1.09,0,0,0,1.09,1.09h4.08a1.09,1.09,0,0,0,1.09-1.09V114a.88.88,0,0,0-1.07-.9Z"/><path class="cls-2" d="M245,137c-.94-3-4.42-7.93-17.19-8h0c-12.78,0-16.26,5-17.19,8-.64,2-.69,4.88-.69,8.73s0,6.72.69,8.72c.93,3,4.41,7.94,17.19,7.95h0c12.77,0,16.25-5,17.19-7.95.63-2,.68-4.88.68-8.72S245.64,139,245,137m-6,15.56c-.53,1.65-3.77,3.57-11.23,3.59s-10.7-1.94-11.22-3.58c-.4-1.25-.4-4.61-.4-6.84s0-5.6.4-6.84c.52-1.64,3.77-3.57,11.22-3.58s10.7,1.94,11.23,3.58c.39,1.24.39,4.61.39,6.84s0,5.59-.39,6.83"/><path class="cls-2" d="M176.63,129c-12.77,0-16.25,5-17.19,8-.64,2-.68,7.64-.68,7.64,0,.6,0,1.58,0,2.18v13.6a1.09,1.09,0,0,0,1.1,1.09h4.07a1.09,1.09,0,0,0,1.1-1.09V144.63a36.27,36.27,0,0,1,.38-5.75c.53-1.64,3.78-3.57,11.23-3.58s10.71,1.94,11.23,3.58a35.36,35.36,0,0,1,.39,5.75v15.78a1.1,1.1,0,0,0,1.1,1.09h4.07a1.09,1.09,0,0,0,1.09-1.09v-13.6c0-.6,0-1.58,0-2.18,0,0,0-5.63-.67-7.64-.94-3-4.41-7.93-17.19-8"/><path class="cls-2" d="M153.26,159.65l0,0,0,0Z"/><path class="cls-2" d="M113.73,137c-.94-3-4.41-7.93-17.19-8h0c-12.77,0-16.25,5-17.19,8-.64,2-.69,4.88-.69,8.73s0,6.72.69,8.72c.94,3,4.42,7.94,17.19,7.95h0c4.86,0,11.6-.87,15.21-2.74l0,0a.87.87,0,0,0,.4-1.24l-2.4-3.56a1.36,1.36,0,0,0-1.59-.43,37.78,37.78,0,0,1-11.67,1.74c-7.45,0-10.7-1.94-11.22-3.58a9.81,9.81,0,0,1-.28-1.89h28.29a1.1,1.1,0,0,0,1.1-1.09v-3.86c0-3.85-.06-6.72-.69-8.73m-28.81,7.42a26.24,26.24,0,0,1,.39-5.53c.52-1.64,3.77-3.57,11.22-3.58s10.71,1.94,11.23,3.58a26.24,26.24,0,0,1,.39,5.53Z"/><path class="cls-2" d="M153.87,137c-.94-3-4.42-7.93-17.19-8h0c-12.78,0-16.26,5-17.19,8-.64,2-.69,4.88-.69,8.73s0,6.72.69,8.72c.93,3,4.41,7.94,17.19,7.95h0c4.86,0,11.6-.87,15.21-2.74l0,0a.87.87,0,0,0,.4-1.24l-2.4-3.56a1.36,1.36,0,0,0-1.59-.43,37.82,37.82,0,0,1-11.66,1.74c-7.46,0-10.71-1.94-11.23-3.58a9.08,9.08,0,0,1-.28-1.89h28.29a1.1,1.1,0,0,0,1.1-1.09v-3.86c0-3.85-.05-6.72-.69-8.73m-28.81,7.42a26.24,26.24,0,0,1,.39-5.53c.52-1.64,3.77-3.57,11.23-3.58s10.7,1.94,11.22,3.58a26.24,26.24,0,0,1,.39,5.53Z"/><path class="cls-2" d="M282,142.55c-5.05-.37-8.54-1-10.37-1.91-1.21-.59-1.21-1-1.21-1.51,0-2.32,4.46-3.82,11.35-3.83a30,30,0,0,1,11.41,2l.69.33a1.33,1.33,0,0,0,1.6-.34l2.55-3.44a.87.87,0,0,0-.34-1.26h0c-4.15-2.58-10.81-3.52-15.91-3.53h0c-15.89,0-17.61,7.06-17.61,10.09,0,7.73,9,9,17.38,9.66,5.12.38,8.63,1,10.43,2,1.14.58,1.14,1,1.14,1.56,0,2.33-4.45,3.83-11.34,3.84a30.09,30.09,0,0,1-11.4-2l-.7-.33a1.32,1.32,0,0,0-1.6.34l-2.55,3.44a.86.86,0,0,0,.34,1.25h0c4.15,2.58,10.82,3.53,15.91,3.53v-1.25h0v1.25c15.9,0,17.61-7,17.61-10.09,0-7.82-9-9.13-17.38-9.75"/><path class="cls-2" d="M75.45,129.18c-10,.81-13,5.13-13.8,7.81-.63,2-.68,4.88-.68,8.73v14.42a1.09,1.09,0,0,0,1.09,1.09h4.08a1.09,1.09,0,0,0,1.09-1.09V145.72c0-2.23,0-5.6.39-6.84s2.77-2.92,7.83-3.42v0a1.1,1.1,0,0,0,1.09-1.1v-4.07a1.09,1.09,0,0,0-1.09-1.09"/><path class="cls-2" d="M41.14,168.61c-2.42-.78-8.27-2.74-9.55-3.4-1.49-.77-1.49-1.26-1.49-2,0-1,1-1.35,1.52-1.44a36,36,0,0,0,7.12.64h0c12.77,0,16.25-5,17.19-7.95.63-2,.68-4.88.68-8.72s0-6.72-.68-8.73c-.94-3-4.42-7.93-17.19-8h0c-12.77,0-16.25,5-17.19,8-.64,2-.68,4.88-.68,8.73s0,6.72.68,8.72a9.13,9.13,0,0,0,3.54,4.67,6.94,6.94,0,0,0-1.25,4.08c0,3.74,2.16,6,5.6,7.78-4.17,1.64-7.08,3.56-8.17,6.92a10.21,10.21,0,0,0-.4,3.62,10.43,10.43,0,0,0,.42,3.8c1.14,3.54,5.1,7.77,17.45,7.78h0c12.35,0,16.31-4.24,17.47-7.8a10.87,10.87,0,0,0,.4-3.78,10.25,10.25,0,0,0-.41-3.65c-1.61-5-7.28-6.72-15.07-9.25M27.52,138.88c.52-1.64,3.77-3.57,11.22-3.58s10.71,1.94,11.23,3.58c.39,1.24.39,4.61.39,6.84s0,5.59-.39,6.83c-.52,1.65-3.77,3.57-11.23,3.59S28,154.2,27.52,152.55c-.39-1.24-.39-4.6-.39-6.83s0-5.6.39-6.84m22.73,44.5c-.56,1.72-4.33,3.44-11.51,3.45s-11-1.73-11.51-3.47c0-.05,0-.08,0-.14a11.57,11.57,0,0,1-.06-1.71,11.45,11.45,0,0,1,.05-1.55l.06-.18c.62-1.9,5.43-3.43,11-5.2l.49-.16.5.16c5.58,1.77,10.39,3.3,11,5.24a.74.74,0,0,1,0,.14,9.18,9.18,0,0,1,.06,1.55,6.47,6.47,0,0,1-.11,1.87"/><path class="cls-3" d="M155.22,80.4H133.77l-2-15.9-13-9.46a42.26,42.26,0,1,1,83.67-8.45A42.79,42.79,0,0,1,201.6,55l-13,9.46-2,15.9H165.15l-1.24.9a6.34,6.34,0,0,1-7.45,0Z"/><path class="cls-4" d="M155.22,80.4H133.77l-2-15.9-13-9.46a42.26,42.26,0,1,1,83.67-8.45A42.79,42.79,0,0,1,201.6,55l-13,9.46-2,15.9H165.15l-1.24.9a6.34,6.34,0,0,1-7.45,0Z"/><path class="cls-5" d="M155.22,80.4H133.77l-2-15.9-13-9.46a42.26,42.26,0,1,1,83.67-8.45A42.79,42.79,0,0,1,201.6,55l-13,9.46-2,15.9H165.15l-1.24.9a6.34,6.34,0,0,1-7.45,0Zm.67-7.4H140.3l-1.57-12.59-12.85-9.34a18.33,18.33,0,0,1-.56-4.48,17.93,17.93,0,0,1,1.56-7.32l22.73,23L127.51,35A18,18,0,0,1,133,25.82L152.84,60,135.29,22.58a18,18,0,0,1,9.05-6.37l12.11,42.45-8.85-44.2a17.93,17.93,0,0,1,8.82-2.32,18.25,18.25,0,0,1,2,.11l1.81,46,1.8-46a18.25,18.25,0,0,1,2-.11,17.93,17.93,0,0,1,8.82,2.32l-8.85,44.2L176,16.21a18,18,0,0,1,9.05,6.37L167.53,60l19.81-34.2A17.94,17.94,0,0,1,192.86,35l-22.1,27.28,22.73-23a17.93,17.93,0,0,1,1.56,7.32,18.33,18.33,0,0,1-.56,4.48l-12.84,9.34L180.07,73H164.48l-2.3,1.68a3.37,3.37,0,0,1-4,0Z"/></svg>